<svg width="119" height="27" viewBox="0 0 119 27" fill="none" xmlns="http://www.w3.org/2000/svg">
<path d="M19.258 1.316C18.4647 2.44933 17.422 3.39 16.13 4.138C14.838 4.886 13.5347 5.26 12.22 5.26C11.7893 5.804 11.472 6.32533 11.268 6.824C11.0867 7.32267 10.996 7.90067 10.996 8.558V19.54C10.996 21.172 10.6333 22.5433 9.908 23.654C9.20533 24.7647 8.106 25.7847 6.61 26.714L5.896 25.898C6.48533 25.15 6.78 24.0507 6.78 22.6V10.53C6.78 9.578 7.07467 8.66 7.664 7.776C8.276 6.86933 9.024 6.03067 9.908 5.26L5.386 5.226C4.61533 5.226 3.91267 5.396 3.278 5.736C2.64333 6.076 2.04267 6.59733 1.476 7.3L0.728 6.586C1.79333 5.18067 2.88133 4.07 3.992 3.254C5.12533 2.438 6.406 2.03 7.834 2.03H12.866C13.954 2.03 15.0533 1.93933 16.164 1.758C17.2747 1.554 18.1133 1.20267 18.68 0.703999L19.258 1.316Z" fill="#4F46E5"/>
<path d="M31.5109 21.7227C31.5109 22.2461 31.4445 22.7188 31.3117 23.1406C31.1789 23.5547 31.0031 23.9219 30.7844 24.2422C30.5656 24.5547 30.3117 24.8242 30.0227 25.0508C29.7336 25.2695 29.4289 25.4492 29.1086 25.5898C28.7961 25.7305 28.4758 25.8359 28.1477 25.9062C27.8273 25.9688 27.5227 26 27.2336 26H21.7375C21.3156 26 20.8547 25.9258 20.3547 25.7773C19.8547 25.6289 19.3898 25.3867 18.9602 25.0508C18.5383 24.707 18.1828 24.2656 17.8938 23.7266C17.6125 23.1797 17.4719 22.5117 17.4719 21.7227V17.5977C17.4719 16.8164 17.6125 16.1562 17.8938 15.6172C18.1828 15.0703 18.5383 14.6289 18.9602 14.293C19.3898 13.9492 19.8547 13.7031 20.3547 13.5547C20.8547 13.4062 21.3156 13.332 21.7375 13.332H27.2336C28.0148 13.332 28.6789 13.4727 29.2258 13.7539C29.7727 14.0352 30.2141 14.3906 30.55 14.8203C30.8859 15.2422 31.1281 15.7031 31.2766 16.2031C31.4328 16.7031 31.5109 17.168 31.5109 17.5977V21.7227ZM28.4641 17.6211C28.4641 17.1992 28.3586 16.8867 28.1477 16.6836C27.9367 16.4805 27.632 16.3789 27.2336 16.3789H21.7609C21.3547 16.3789 21.0461 16.4844 20.8352 16.6953C20.6242 16.8984 20.5188 17.1992 20.5188 17.5977V21.7227C20.5188 22.1211 20.6242 22.4258 20.8352 22.6367C21.0461 22.8477 21.3547 22.9531 21.7609 22.9531H27.2336C27.6477 22.9531 27.9563 22.8477 28.1594 22.6367C28.3625 22.4258 28.4641 22.1211 28.4641 21.7227V17.6211ZM48.0109 21.7227C48.0109 22.2461 47.9445 22.7188 47.8117 23.1406C47.6789 23.5547 47.5031 23.9219 47.2844 24.2422C47.0656 24.5547 46.8117 24.8242 46.5227 25.0508C46.2336 25.2695 45.9289 25.4492 45.6086 25.5898C45.2961 25.7305 44.9758 25.8359 44.6477 25.9062C44.3273 25.9688 44.0227 26 43.7336 26H38.2375C37.7141 26 37.2453 25.9336 36.8312 25.8008C36.4172 25.668 36.05 25.4922 35.7297 25.2734C35.4172 25.0469 35.1477 24.7891 34.9211 24.5C34.7023 24.2109 34.5227 23.9102 34.382 23.5977C34.2414 23.2773 34.1359 22.957 34.0656 22.6367C34.0031 22.3086 33.9719 22.0039 33.9719 21.7227V17.5977C33.9719 16.8164 34.1125 16.1562 34.3937 15.6172C34.6828 15.0703 35.0383 14.6289 35.4602 14.293C35.8898 13.9492 36.3547 13.7031 36.8547 13.5547C37.3547 13.4062 37.8156 13.332 38.2375 13.332H43.7336V16.3789H38.2609C37.8547 16.3789 37.5461 16.4844 37.3352 16.6953C37.1242 16.8984 37.0187 17.1992 37.0187 17.5977V21.6992C37.0187 22.1133 37.1203 22.4258 37.3234 22.6367C37.5344 22.8477 37.8391 22.9531 38.2375 22.9531H43.7336C44.1477 22.9531 44.4562 22.8477 44.6594 22.6367C44.8625 22.4258 44.9641 22.1211 44.9641 21.7227V7.97656H48.0109V21.7227ZM64.6984 21.7227C64.6984 22.2461 64.632 22.7188 64.4992 23.1406C64.3664 23.5547 64.1906 23.9219 63.9719 24.2422C63.7531 24.5547 63.4992 24.8242 63.2102 25.0508C62.9211 25.2695 62.6164 25.4492 62.2961 25.5898C61.9836 25.7305 61.6633 25.8359 61.3352 25.9062C61.0148 25.9688 60.7102 26 60.4211 26H54.925C54.5031 26 54.0422 25.9258 53.5422 25.7773C53.0422 25.6289 52.5773 25.3867 52.1477 25.0508C51.7258 24.707 51.3703 24.2656 51.0812 23.7266C50.8 23.1797 50.6594 22.5117 50.6594 21.7227V17.5977C50.6594 16.8164 50.8 16.1562 51.0812 15.6172C51.3703 15.0703 51.7258 14.6289 52.1477 14.293C52.5773 13.9492 53.0422 13.7031 53.5422 13.5547C54.0422 13.4062 54.5031 13.332 54.925 13.332H60.4211C61.2023 13.332 61.8664 13.4727 62.4133 13.7539C62.9602 14.0352 63.4016 14.3906 63.7375 14.8203C64.0734 15.2422 64.3156 15.7031 64.4641 16.2031C64.6203 16.7031 64.6984 17.168 64.6984 17.5977V21.7227ZM61.6516 17.6211C61.6516 17.1992 61.5461 16.8867 61.3352 16.6836C61.1242 16.4805 60.8195 16.3789 60.4211 16.3789H54.9484C54.5422 16.3789 54.2336 16.4844 54.0227 16.6953C53.8117 16.8984 53.7062 17.1992 53.7062 17.5977V21.7227C53.7062 22.1211 53.8117 22.4258 54.0227 22.6367C54.2336 22.8477 54.5422 22.9531 54.9484 22.9531H60.4211C60.8352 22.9531 61.1437 22.8477 61.3469 22.6367C61.55 22.4258 61.6516 22.1211 61.6516 21.7227V17.6211ZM84.4328 14.8438C84.4328 15.5391 84.3469 16.1602 84.175 16.707C84.0031 17.2539 83.7688 17.7383 83.4719 18.1602C83.1828 18.5742 82.8469 18.9297 82.4641 19.2266C82.0813 19.5234 81.6789 19.7695 81.257 19.9648C80.843 20.1523 80.4211 20.2891 79.9914 20.375C79.5695 20.4609 79.1711 20.5039 78.7961 20.5039L85.1594 26H80.4484L74.0969 20.5039H71.9055V17.457H78.7961C79.1789 17.4258 79.5266 17.3477 79.8391 17.2227C80.1594 17.0898 80.4328 16.9141 80.6594 16.6953C80.8938 16.4766 81.0734 16.2148 81.1984 15.9102C81.3234 15.5977 81.3859 15.2422 81.3859 14.8438V12.9219C81.3859 12.75 81.3625 12.6211 81.3156 12.5352C81.2766 12.4414 81.2219 12.375 81.1516 12.3359C81.0891 12.2891 81.0188 12.2617 80.9406 12.2539C80.8703 12.2461 80.8039 12.2422 80.7414 12.2422H70.6867V26H67.6398V10.7305C67.6398 10.5195 67.6789 10.3203 67.757 10.1328C67.8352 9.94531 67.9406 9.78125 68.0734 9.64062C68.2141 9.5 68.3781 9.39062 68.5656 9.3125C68.7531 9.23438 68.9563 9.19531 69.175 9.19531H80.7414C81.4211 9.19531 81.9953 9.32031 82.4641 9.57031C82.9328 9.8125 83.3117 10.1211 83.6008 10.4961C83.8977 10.8633 84.1086 11.2617 84.2336 11.6914C84.3664 12.1211 84.4328 12.5234 84.4328 12.8984V14.8438ZM90.2453 10.7305H87.1984V7.97656H90.2453V10.7305ZM90.2453 26H87.1984V13.332H90.2453V26ZM105.421 21.7227C105.421 22.2461 105.355 22.7188 105.222 23.1406C105.089 23.5547 104.913 23.9219 104.695 24.2422C104.476 24.5547 104.222 24.8242 103.933 25.0508C103.644 25.2695 103.339 25.4492 103.019 25.5898C102.706 25.7305 102.386 25.8359 102.058 25.9062C101.738 25.9688 101.433 26 101.144 26H92.8938V22.9531H101.12C101.534 22.9531 101.847 22.8477 102.058 22.6367C102.269 22.4258 102.374 22.1211 102.374 21.7227C102.335 20.9102 101.925 20.5039 101.144 20.5039H96.4211C95.7492 20.5039 95.1789 20.3867 94.7102 20.1523C94.2414 19.918 93.8586 19.625 93.5617 19.2734C93.2727 18.9219 93.0617 18.543 92.9289 18.1367C92.8039 17.7305 92.7414 17.3516 92.7414 17C92.7414 16.3203 92.8625 15.75 93.1047 15.2891C93.3469 14.8203 93.6516 14.4414 94.0188 14.1523C94.3859 13.8633 94.7844 13.6562 95.2141 13.5312C95.6438 13.3984 96.0461 13.332 96.4211 13.332H103.909V16.3789H96.4445C96.2883 16.3789 96.1633 16.3984 96.0695 16.4375C95.9836 16.4688 95.9172 16.5156 95.8703 16.5781C95.8313 16.6328 95.8078 16.6953 95.8 16.7656C95.7922 16.8281 95.7883 16.8906 95.7883 16.9531C95.7961 17.0781 95.8195 17.1758 95.8586 17.2461C95.8977 17.3164 95.9445 17.3672 95.9992 17.3984C96.0617 17.4297 96.1281 17.4492 96.1984 17.457C96.2766 17.457 96.3508 17.457 96.4211 17.457H101.144C101.925 17.457 102.589 17.5977 103.136 17.8789C103.683 18.1602 104.124 18.5156 104.46 18.9453C104.796 19.3672 105.038 19.8281 105.187 20.3281C105.343 20.8281 105.421 21.293 105.421 21.7227ZM118.874 16.3789H113.554V26H110.472V16.3789H106.511V13.332H110.472V9.19531H113.554V13.332H118.874V16.3789Z" fill="#111827"/>
</svg>
