<svg width="20" height="27" viewBox="0 0 20 27" fill="none" xmlns="http://www.w3.org/2000/svg">
<path d="M19.258 1.316C18.4647 2.44933 17.422 3.39 16.13 4.138C14.838 4.886 13.5347 5.26 12.22 5.26C11.7893 5.804 11.472 6.32533 11.268 6.824C11.0867 7.32267 10.996 7.90067 10.996 8.558V19.54C10.996 21.172 10.6333 22.5433 9.908 23.654C9.20533 24.7647 8.106 25.7847 6.61 26.714L5.896 25.898C6.48533 25.15 6.78 24.0507 6.78 22.6V10.53C6.78 9.578 7.07467 8.66 7.664 7.776C8.276 6.86933 9.024 6.03067 9.908 5.26L5.386 5.226C4.61533 5.226 3.91267 5.396 3.278 5.736C2.64333 6.076 2.04267 6.59733 1.476 7.3L0.728 6.586C1.79333 5.18067 2.88133 4.07 3.992 3.254C5.12533 2.438 6.406 2.03 7.834 2.03H12.866C13.954 2.03 15.0533 1.93933 16.164 1.758C17.2747 1.554 18.1133 1.20267 18.68 0.703999L19.258 1.316Z" fill="#4F46E5"/>
</svg>
